<svg width="55" height="26" viewBox="0 0 55 26" fill="none" xmlns="http://www.w3.org/2000/svg">
<rect width="55" height="26" rx="4" fill="#DB4444"/>
<path d="M17.484 12.14V13.064H12.696V12.14H17.484ZM19.3294 10.508C19.3854 9.772 19.6694 9.196 20.1814 8.78C20.6934 8.364 21.3574 8.156 22.1734 8.156C22.7174 8.156 23.1854 8.256 23.5774 8.456C23.9774 8.648 24.2774 8.912 24.4774 9.248C24.6854 9.584 24.7894 9.964 24.7894 10.388C24.7894 10.884 24.6454 11.312 24.3574 11.672C24.0774 12.032 23.7094 12.264 23.2534 12.368V12.428C23.7734 12.556 24.1854 12.808 24.4894 13.184C24.7934 13.56 24.9454 14.052 24.9454 14.66C24.9454 15.116 24.8414 15.528 24.6334 15.896C24.4254 16.256 24.1134 16.54 23.6974 16.748C23.2814 16.956 22.7814 17.06 22.1974 17.06C21.3494 17.06 20.6534 16.84 20.1094 16.4C19.5654 15.952 19.2614 15.32 19.1974 14.504H20.2534C20.3094 14.984 20.5054 15.376 20.8414 15.68C21.1774 15.984 21.6254 16.136 22.1854 16.136C22.7454 16.136 23.1694 15.992 23.4574 15.704C23.7534 15.408 23.9014 15.028 23.9014 14.564C23.9014 13.964 23.7014 13.532 23.3014 13.268C22.9014 13.004 22.2974 12.872 21.4894 12.872H21.2134V11.96H21.5014C22.2374 11.952 22.7934 11.832 23.1694 11.6C23.5454 11.36 23.7334 10.992 23.7334 10.496C23.7334 10.072 23.5934 9.732 23.3134 9.476C23.0414 9.22 22.6494 9.092 22.1374 9.092C21.6414 9.092 21.2414 9.22 20.9374 9.476C20.6334 9.732 20.4534 10.076 20.3974 10.508H19.3294ZM26.4198 12.572C26.4198 11.196 26.6438 10.124 27.0918 9.356C27.5398 8.58 28.3238 8.192 29.4438 8.192C30.5558 8.192 31.3358 8.58 31.7838 9.356C32.2318 10.124 32.4558 11.196 32.4558 12.572C32.4558 13.972 32.2318 15.06 31.7838 15.836C31.3358 16.612 30.5558 17 29.4438 17C28.3238 17 27.5398 16.612 27.0918 15.836C26.6438 15.06 26.4198 13.972 26.4198 12.572ZM31.3758 12.572C31.3758 11.876 31.3278 11.288 31.2318 10.808C31.1438 10.32 30.9558 9.928 30.6678 9.632C30.3878 9.336 29.9798 9.188 29.4438 9.188C28.8998 9.188 28.4838 9.336 28.1958 9.632C27.9158 9.928 27.7278 10.32 27.6318 10.808C27.5438 11.288 27.4998 11.876 27.4998 12.572C27.4998 13.292 27.5438 13.896 27.6318 14.384C27.7278 14.872 27.9158 15.264 28.1958 15.56C28.4838 15.856 28.8998 16.004 29.4438 16.004C29.9798 16.004 30.3878 15.856 30.6678 15.56C30.9558 15.264 31.1438 14.872 31.2318 14.384C31.3278 13.896 31.3758 13.292 31.3758 12.572ZM33.7149 10.28C33.7149 9.736 33.8789 9.304 34.2069 8.984C34.5349 8.656 34.9549 8.492 35.4669 8.492C35.9789 8.492 36.3989 8.656 36.7269 8.984C37.0549 9.304 37.2189 9.736 37.2189 10.28C37.2189 10.832 37.0549 11.272 36.7269 11.6C36.3989 11.92 35.9789 12.08 35.4669 12.08C34.9549 12.08 34.5349 11.92 34.2069 11.6C33.8789 11.272 33.7149 10.832 33.7149 10.28ZM40.7229 8.624L35.8629 17H34.7829L39.6429 8.624H40.7229ZM35.4669 9.164C35.1949 9.164 34.9789 9.26 34.8189 9.452C34.6669 9.636 34.5909 9.912 34.5909 10.28C34.5909 10.648 34.6669 10.928 34.8189 11.12C34.9789 11.312 35.1949 11.408 35.4669 11.408C35.7389 11.408 35.9549 11.312 36.1149 11.12C36.2749 10.92 36.3549 10.64 36.3549 10.28C36.3549 9.912 36.2749 9.636 36.1149 9.452C35.9549 9.26 35.7389 9.164 35.4669 9.164ZM38.3109 15.344C38.3109 14.792 38.4749 14.356 38.8029 14.036C39.1309 13.708 39.5509 13.544 40.0629 13.544C40.5749 13.544 40.9909 13.708 41.3109 14.036C41.6389 14.356 41.8029 14.792 41.8029 15.344C41.8029 15.888 41.6389 16.324 41.3109 16.652C40.9909 16.98 40.5749 17.144 40.0629 17.144C39.5509 17.144 39.1309 16.984 38.8029 16.664C38.4749 16.336 38.3109 15.896 38.3109 15.344ZM40.0509 14.228C39.7789 14.228 39.5629 14.324 39.4029 14.516C39.2429 14.7 39.1629 14.976 39.1629 15.344C39.1629 15.704 39.2429 15.98 39.4029 16.172C39.5629 16.356 39.7789 16.448 40.0509 16.448C40.3229 16.448 40.5389 16.356 40.6989 16.172C40.8589 15.98 40.9389 15.704 40.9389 15.344C40.9389 14.976 40.8589 14.7 40.6989 14.516C40.5389 14.324 40.3229 14.228 40.0509 14.228Z" fill="#FAFAFA"/>
</svg>
