<svg width="55" height="26" viewBox="0 0 55 26" fill="none" xmlns="http://www.w3.org/2000/svg">
<rect width="55" height="26" rx="4" fill="#DB4444"/>
<path d="M17.484 12.14V13.064H12.696V12.14H17.484ZM19.2214 16.124C20.2374 15.308 21.0334 14.64 21.6094 14.12C22.1854 13.592 22.6694 13.044 23.0614 12.476C23.4614 11.9 23.6614 11.336 23.6614 10.784C23.6614 10.264 23.5334 9.856 23.2774 9.56C23.0294 9.256 22.6254 9.104 22.0654 9.104C21.5214 9.104 21.0974 9.276 20.7934 9.62C20.4974 9.956 20.3374 10.408 20.3134 10.976H19.2574C19.2894 10.08 19.5614 9.388 20.0734 8.9C20.5854 8.412 21.2454 8.168 22.0534 8.168C22.8774 8.168 23.5294 8.396 24.0094 8.852C24.4974 9.308 24.7414 9.936 24.7414 10.736C24.7414 11.4 24.5414 12.048 24.1414 12.68C23.7494 13.304 23.3014 13.856 22.7974 14.336C22.2934 14.808 21.6494 15.36 20.8654 15.992H24.9934V16.904H19.2214V16.124ZM31.7877 9.272H27.5757V12.008C27.7597 11.752 28.0317 11.544 28.3917 11.384C28.7517 11.216 29.1397 11.132 29.5557 11.132C30.2197 11.132 30.7597 11.272 31.1757 11.552C31.5917 11.824 31.8877 12.18 32.0637 12.62C32.2477 13.052 32.3397 13.512 32.3397 14C32.3397 14.576 32.2317 15.092 32.0157 15.548C31.7997 16.004 31.4677 16.364 31.0197 16.628C30.5797 16.892 30.0317 17.024 29.3757 17.024C28.5357 17.024 27.8557 16.808 27.3357 16.376C26.8157 15.944 26.4997 15.368 26.3877 14.648H27.4557C27.5597 15.104 27.7797 15.46 28.1157 15.716C28.4517 15.972 28.8757 16.1 29.3877 16.1C30.0197 16.1 30.4957 15.912 30.8157 15.536C31.1357 15.152 31.2957 14.648 31.2957 14.024C31.2957 13.4 31.1357 12.92 30.8157 12.584C30.4957 12.24 30.0237 12.068 29.3997 12.068C28.9757 12.068 28.6037 12.172 28.2837 12.38C27.9717 12.58 27.7437 12.856 27.5997 13.208H26.5677V8.312H31.7877V9.272ZM33.5509 10.28C33.5509 9.736 33.7149 9.304 34.0429 8.984C34.3709 8.656 34.7909 8.492 35.3029 8.492C35.8149 8.492 36.2349 8.656 36.5629 8.984C36.8909 9.304 37.0549 9.736 37.0549 10.28C37.0549 10.832 36.8909 11.272 36.5629 11.6C36.2349 11.92 35.8149 12.08 35.3029 12.08C34.7909 12.08 34.3709 11.92 34.0429 11.6C33.7149 11.272 33.5509 10.832 33.5509 10.28ZM40.5589 8.624L35.6989 17H34.6189L39.4789 8.624H40.5589ZM35.3029 9.164C35.0309 9.164 34.8149 9.26 34.6549 9.452C34.5029 9.636 34.4269 9.912 34.4269 10.28C34.4269 10.648 34.5029 10.928 34.6549 11.12C34.8149 11.312 35.0309 11.408 35.3029 11.408C35.5749 11.408 35.7909 11.312 35.9509 11.12C36.1109 10.92 36.1909 10.64 36.1909 10.28C36.1909 9.912 36.1109 9.636 35.9509 9.452C35.7909 9.26 35.5749 9.164 35.3029 9.164ZM38.1469 15.344C38.1469 14.792 38.3109 14.356 38.6389 14.036C38.9669 13.708 39.3869 13.544 39.8989 13.544C40.4109 13.544 40.8269 13.708 41.1469 14.036C41.4749 14.356 41.6389 14.792 41.6389 15.344C41.6389 15.888 41.4749 16.324 41.1469 16.652C40.8269 16.98 40.4109 17.144 39.8989 17.144C39.3869 17.144 38.9669 16.984 38.6389 16.664C38.3109 16.336 38.1469 15.896 38.1469 15.344ZM39.8869 14.228C39.6149 14.228 39.3989 14.324 39.2389 14.516C39.0789 14.7 38.9989 14.976 38.9989 15.344C38.9989 15.704 39.0789 15.98 39.2389 16.172C39.3989 16.356 39.6149 16.448 39.8869 16.448C40.1589 16.448 40.3749 16.356 40.5349 16.172C40.6949 15.98 40.7749 15.704 40.7749 15.344C40.7749 14.976 40.6949 14.7 40.5349 14.516C40.3749 14.324 40.1589 14.228 39.8869 14.228Z" fill="#FAFAFA"/>
</svg>
